<?xml version="1.0" encoding="utf-8"?>
<!-- Generator: Adobe Illustrator 23.0.5, SVG Export Plug-In . SVG Version: 6.00 Build 0)  -->
<svg version="1.1" id="Capa_1" xmlns="http://www.w3.org/2000/svg" xmlns:xlink="http://www.w3.org/1999/xlink" x="0px" y="0px"
	 viewBox="0 0 512 512" style="enable-background:new 0 0 512 512;" xml:space="preserve">
<style type="text/css">
	.st0{fill:#1D1D1B;}
</style>
<g>
	<rect x="338" y="376.5" class="st0" width="110.8" height="75.7"/>
	<rect x="55.4" y="274.4" class="st0" width="110.8" height="75.7"/>
	<rect x="198.2" y="376.5" class="st0" width="110.8" height="75.7"/>
	<path class="st0" d="M474.8,62.5h-50.3V31.3c0-17.3-14-31.3-31.3-31.3h0c-17.3,0-31.3,14-31.3,31.3v31.2h-78.3V31.3
		c0-17.3-14-31.3-31.3-31.3h0C235,0,221,14,221,31.3v31.2h-78.3V31.3c0-17.3-14-31.3-31.3-31.3h0C94.2,0,80.2,14,80.2,31.3v31.2
		H36.9c-19.5,0-35.4,15.8-35.4,35.4v376.4c0,19.5,15.8,35.4,35.4,35.4h437.9c19.5,0,35.4-15.8,35.4-35.4V97.9
		C510.1,78.3,494.3,62.5,474.8,62.5z M372.1,33.8c0-12.1,9.8-21.9,21.9-21.9h0c12.1,0,21.9,9.8,21.9,21.9v61.9
		c0,12.1-9.8,21.9-21.9,21.9h0c-12.1,0-21.9-9.8-21.9-21.9V33.8z M230.1,33.8c0-12.1,9.8-21.9,21.9-21.9h0
		c12.1,0,21.9,9.8,21.9,21.9v61.9c0,12.1-9.8,21.9-21.9,21.9h0c-12.1,0-21.9-9.8-21.9-21.9V33.8z M90.4,33.8
		c0-12.1,9.8-21.9,21.9-21.9h0c12.1,0,21.9,9.8,21.9,21.9v61.9c0,12.1-9.8,21.9-21.9,21.9h0c-12.1,0-21.9-9.8-21.9-21.9V33.8z
		 M492.6,466.6c0,12-9.7,21.7-21.7,21.7H41c-12,0-21.7-9.7-21.7-21.7V136.1h473.3V466.6z"/>
	<rect x="56.4" y="376.5" class="st0" width="110.8" height="75.7"/>
	<rect x="56.6" y="172.2" class="st0" width="110.8" height="75.7"/>
	<rect x="197.2" y="274.4" class="st0" width="110.8" height="75.7"/>
	<rect x="338.2" y="172.2" class="st0" width="110.8" height="75.7"/>
	<rect x="337" y="274.4" class="st0" width="110.8" height="75.7"/>
	<rect x="198.4" y="172.2" class="st0" width="110.8" height="75.7"/>
</g>
<g>
</g>
<g>
</g>
<g>
</g>
<g>
</g>
<g>
</g>
<g>
</g>
</svg>
